<svg xmlns="http://www.w3.org/2000/svg" viewBox="0 0 64 64" role="img" aria-labelledby="title">
  <title>Jil Dominic Pojarda portfolio mark</title>
  <rect width="64" height="64" rx="14" fill="#0d0f12"/>
  <path d="M18 14h14v29.4c0 4.1-1.25 7.25-3.75 9.45-2.5 2.22-6.08 3.33-10.75 3.33h-4.35v-9.3h4.08c3.25 0 4.88-1.38 4.88-4.13V24.9H18V14z" fill="#7eb8b0"/>
  <path d="M35 14h9.65c8.5 0 14.2 5.17 14.2 12.92 0 7.83-5.7 13.03-14.2 13.03H35v-9.18h8.7c3.42 0 5.25-1.35 5.25-3.85 0-2.45-1.83-3.75-5.25-3.75H35V14z" fill="#c4a882"/>
  <path d="M35 44h19.3v8.85H35V44z" fill="#d8dde4"/>
  <rect x=".5" y=".5" width="63" height="63" rx="13.5" fill="none" stroke="#fff" opacity=".08"/>
</svg>
